HIERARCHY
ROOT Hips
{
	OFFSET 0.000000 0.000000 0.000000
	CHANNELS 6 Xposition Yposition Zposition Xrotation Yrotation Zrotation
	JOINT Chest
	{
		OFFSET 0.000000 0.009282 11.569106
		CHANNELS 3 Xrotation Yrotation Zrotation
		JOINT Chest2
		{
			OFFSET 0.000000 -0.016863 9.269641
			CHANNELS 3 Xrotation Yrotation Zrotation
			JOINT Chest3
			{
				OFFSET 0.000000 0.000000 8.374491
				CHANNELS 3 Xrotation Yrotation Zrotation
				JOINT Chest4
				{
					OFFSET 0.000000 0.000000 8.374493
					CHANNELS 3 Xrotation Yrotation Zrotation
					JOINT Neck
					{
						OFFSET 0.000000 -0.000001 12.152554
						CHANNELS 3 Xrotation Yrotation Zrotation
						JOINT Head
						{
							OFFSET 0.000000 -0.040100 7.802319
							CHANNELS 3 Xrotation Yrotation Zrotation
							End Site
							{
								OFFSET 0.000000 -0.020946 14.853096
							}
						}
					}
					JOINT RightCollar
					{
						OFFSET -2.894404 0.000000 6.791374
						CHANNELS 3 Xrotation Yrotation Zrotation
						JOINT RightShoulder
						{
							OFFSET -13.574684 0.000000 0.000000
							CHANNELS 3 Xrotation Yrotation Zrotation
							JOINT RightElbow
							{
								OFFSET -23.923903 0.000000 0.000000
								CHANNELS 3 Xrotation Yrotation Zrotation
								JOINT RightWrist
								{
									OFFSET -19.846718 -0.012765 0.000000
									CHANNELS 3 Xrotation Yrotation Zrotation
									End Site
									{
										OFFSET -14.973145 0.000000 0.000000
									}
								}
							}
						}
					}
					JOINT LeftCollar
					{
						OFFSET 2.894404 0.000000 6.791374
						CHANNELS 3 Xrotation Yrotation Zrotation
						JOINT LeftShoulder
						{
							OFFSET 13.574684 0.000000 0.000000
							CHANNELS 3 Xrotation Yrotation Zrotation
							JOINT LeftElbow
							{
								OFFSET 23.923903 0.000000 0.000000
								CHANNELS 3 Xrotation Yrotation Zrotation
								JOINT LeftWrist
								{
									OFFSET 19.846718 -0.012765 0.000000
									CHANNELS 3 Xrotation Yrotation Zrotation
									End Site
									{
										OFFSET 14.973145 0.000000 0.000000
									}
								}
							}
						}
					}
				}
			}
		}
	}
	JOINT RightHip
	{
		OFFSET -9.469263 -0.004642 0.045487
		CHANNELS 3 Xrotation Yrotation Zrotation
		JOINT RightKnee
		{
			OFFSET 0.000000 -0.002666 -40.478676
			CHANNELS 3 Xrotation Yrotation Zrotation
			JOINT RightAnkle
			{
				OFFSET 0.000000 -0.049110 -35.224068
				CHANNELS 3 Xrotation Yrotation Zrotation
				JOINT RightToe
				{
					OFFSET 0.000000 -12.539530 -6.151390
					CHANNELS 3 Xrotation Yrotation Zrotation
					End Site
					{
						OFFSET 0.000000 -5.044995 -1.291870
					}
				}
			}
		}
	}
	JOINT LeftHip
	{
		OFFSET 9.469263 -0.004642 0.045487
		CHANNELS 3 Xrotation Yrotation Zrotation
		JOINT LeftKnee
		{
			OFFSET 0.000000 -0.002666 -40.478676
			CHANNELS 3 Xrotation Yrotation Zrotation
			JOINT LeftAnkle
			{
				OFFSET 0.000000 -0.049110 -35.224068
				CHANNELS 3 Xrotation Yrotation Zrotation
				JOINT LeftToe
				{
					OFFSET 0.000000 -12.539530 -6.151390
					CHANNELS 3 Xrotation Yrotation Zrotation
					End Site
					{
						OFFSET 0.000000 -5.044995 -1.291870
					}
				}
			}
		}
	}
}
MOTION
Frames: 5
Frame Time: 0.016667
9.245103 -38.163059 83.459908 -4.295197 -1.021643 -113.098493 3.603254 2.223219 0.879026 1.676628 0.986214 0.386546 1.676629 0.986215 0.386535 1.258064 0.738607 0.292601 16.354318 -1.126151 -1.698852 -5.824932 -1.445223 -3.496939 -5.804751 -9.455704 0.134263 12.424005 -41.954942 -5.217464 71.246892 10.049540 60.639137 -53.229348 33.755498 81.837722 -5.996857 9.023363 -2.132208 -0.613942 37.709396 14.790165 74.632159 8.333631 -63.701718 -17.024207 -27.132240 -77.468982 -3.363401 -2.445697 -5.846882 0.049009 -3.886038 -12.649021 0.461505 7.015732 5.205918 -0.523907 -1.085981 0.015576 -4.872513 6.104516 -7.994183 13.633719 1.270420 18.191662 2.849785 -5.471632 0.806449 -14.156194 5.545216 0.673997 
9.140076 -38.165596 83.493019 -4.562759 -1.197563 -113.097564 3.583046 2.341716 0.824824 1.647816 1.011753 0.386356 1.647819 1.011753 0.386362 1.236471 0.757780 0.292491 16.112469 -1.089538 -1.677064 -6.273072 -1.380157 -3.446841 -5.841579 -9.476900 0.151853 12.507607 -41.996176 -5.171389 71.222446 10.028278 60.596673 -53.163423 33.760491 81.763027 -6.019876 8.978087 -2.112725 -0.665908 37.658006 14.923197 74.652547 8.346176 -63.783592 -16.984980 -27.141510 -77.395114 -3.141715 -2.361982 -5.501849 -0.884484 -3.716571 -12.637756 0.998232 7.192606 4.962528 -0.469225 -1.025975 0.002528 -4.152809 6.294802 -8.384567 10.148287 0.905518 17.126988 2.419849 -3.663254 0.191248 -11.315673 2.946588 0.272984 
8.998277 -38.172585 83.512238 -4.786746 -1.407338 -113.130773 3.559078 2.430078 0.802095 1.607851 1.023990 0.385518 1.607854 1.023990 0.385516 1.206504 0.766985 0.291823 15.899383 -1.056562 -1.651864 -6.667945 -1.323840 -3.391311 -5.894198 -9.493229 0.168086 12.571150 -41.990576 -5.155289 71.221142 10.006610 60.600553 -53.099479 33.758466 81.680040 -6.087788 8.950752 -2.076418 -0.727963 37.593580 15.085062 74.710706 8.367857 -63.848055 -16.885005 -27.161596 -77.249358 -2.954044 -2.294353 -5.271015 -1.710643 -3.578893 -12.531585 1.426626 7.268871 4.708147 -0.389478 -0.915387 -0.016464 -3.506098 6.373638 -8.478263 6.868033 0.801995 16.079435 2.257737 -2.097952 -0.576063 -8.914243 0.508090 0.028574 
8.851772 -38.199604 83.524719 -5.001722 -1.707244 -113.148518 3.464141 2.486187 0.767289 1.556112 1.028772 0.380243 1.556110 1.028771 0.380236 1.167693 0.770616 0.287795 15.714954 -1.031713 -1.623708 -7.009902 -1.284274 -3.332902 -5.951256 -9.511090 0.181806 12.594823 -41.950684 -5.162667 71.271303 9.964028 60.627894 -53.064976 33.752578 81.624866 -6.171798 8.943170 -2.043111 -0.811759 37.524233 15.263895 74.799621 8.415889 -63.872002 -16.787749 -27.140028 -77.126032 -2.926273 -2.196971 -5.179974 -2.332128 -3.509170 -12.388640 1.687438 7.243289 4.652530 -0.273591 -0.762141 -0.046541 -3.173623 6.446951 -8.273334 4.207674 0.718900 15.095895 2.242571 -0.701744 -1.440226 -6.972999 -1.583737 -0.094602 
8.692394 -38.277943 83.535873 -5.167809 -2.007514 -113.187921 3.371921 2.511169 0.763547 1.510566 1.030993 0.375271 1.510568 1.030995 0.375276 1.133525 0.772324 0.283999 15.551024 -1.019992 -1.595465 -7.314215 -1.269285 -3.278872 -6.055828 -9.540452 0.163162 12.643915 -41.906954 -5.164526 71.354932 9.925574 60.657442 -53.047340 33.734062 81.593440 -6.298742 8.952267 -2.023350 -0.826985 37.464025 15.408085 74.890552 8.469895 -63.847119 -16.765570 -27.084675 -77.125513 -3.034661 -2.068277 -5.182968 -2.641671 -3.495664 -12.235018 1.792698 7.113492 4.634119 -0.171942 -0.585396 -0.097854 -3.068551 6.581365 -7.771790 2.281852 0.670643 14.389805 2.516181 0.723461 -2.419602 -4.535491 -2.885377 -0.113350 
